<svg width="695" height="435" fill="none" xmlns="http://www.w3.org/2000/svg">
    <path d="M672.405 425.439c0 4.858-143.927 8.781-321.485 8.781-177.557 0-321.485-3.937-321.485-8.781 0-4.858 143.928-8.781 321.485-8.781 177.558 0 321.485 3.937 321.485 8.781z"
          fill="#F2F2F2"/>
    <path d="M184.964 304.922c-1.675-1.828-3.49-3.797-5.416-5.877l-21.122 12.969s7.525-12.201 13.318-21.359c-3.476-3.685-7.189-7.622-11.112-11.698l-18.469 16.403s5.277-14.449 9.591-25.519c-14.379-14.63-30.754-30.405-47.227-44.337l-13.416 24.29 3.923-32.122a301.34 301.34 0 0 0-3.7-2.903c-2.303 11.782-5.36 27.18-5.458 27.668l.405-31.521a281.064 281.064 0 0 0-4.984-3.644c-.781 12.313-1.898 29.581-1.996 28.772-.097-.81-1.843-19.167-3.071-32.29-8.348-5.667-16.417-10.344-23.941-13.611 1.535 6.366 3.252 15.649 1.605 20.521-.419 1.257-2.178 1.271-2.596.014l-7.874-23.787a53.944 53.944 0 0 0-4.258-1.061c-3.7-.754-7.231-.252-10.274 1.13-7.525 3.421-12.062 12.299-8.767 21.01 4.216 11.182 13.36 28.576 32.624 55.114 10.191.95 25.952 2.96 25.952 2.96l-16.25 10.023c6.408 8.362 13.695 17.506 21.988 27.487l1.759 2.206 31.814-10.302-20.256 24.876 26.064 32.82c6.268 7.888 16.905 10.945 26.384 7.469 5.57-2.052 12.229-5.403 19.656-10.861a432.54 432.54 0 0 0-4.342-5.403l-.754-.921a657.3 657.3 0 0 0-3.183-3.867c-.069-.07-.125-.153-.195-.223-.53-.642-1.075-1.298-1.619-1.955-.042-.055-.084-.111-.14-.167-.558-.67-1.131-1.354-1.703-2.024a580.256 580.256 0 0 0-2.792-3.281c-.754-.879-1.494-1.759-2.248-2.638l-.209-.252c-.6-.698-1.201-1.396-1.815-2.094l-.028-.028c-.698-.809-1.396-1.605-2.094-2.415-.474-.544-.949-1.075-1.424-1.619-.781-.907-1.577-1.801-2.373-2.708l-1.242-1.41c-.601-.684-1.201-1.354-1.801-2.024-.991-1.103-1.982-2.22-2.974-3.337-1.605-1.787-3.21-3.588-4.844-5.374-.07-.084-.139-.154-.209-.238l-1.592-1.759a248.286 248.286 0 0 0-1.87-2.052l-3.853-4.188c-.949-1.033-1.913-2.066-2.862-3.099-1.033-1.103-2.052-2.22-3.085-3.322l-3.099-3.309a747.918 747.918 0 0 0-3.183-3.378l-3.727-3.937a978.048 978.048 0 0 0-5.194-5.444l-.028-.028c-.265-.266-.516-.545-.781-.81-.908-.949-1.801-1.885-2.709-2.82l-.949-.991a526.981 526.981 0 0 0-2.764-2.862l-.014-.028a358.967 358.967 0 0 0-2.247-2.317c-.335-.349-.684-.698-1.02-1.047-.781-.81-1.577-1.606-2.345-2.415-.837-.866-1.689-1.731-2.527-2.583-.81-.837-1.633-1.661-2.428-2.485-.81-.823-1.62-1.633-2.416-2.457a853.881 853.881 0 0 1-3.573-3.629c-.88-.88-1.745-1.759-2.597-2.625-2.75-2.778-5.444-5.472-8.069-8.083-.977-.977-1.954-1.94-2.917-2.903-1.466-1.452-2.89-2.876-4.286-4.258-1.187-1.187-2.373-2.345-3.518-3.476-.838-.824-1.675-1.647-2.485-2.457-1.13-1.103-2.234-2.192-3.308-3.253-.768-.74-1.508-1.48-2.248-2.192-.335-.335-.684-.67-1.02-.991a79.32 79.32 0 0 0-1.144-1.116c-.056-.07-.125-.126-.181-.182-.629-.6-1.229-1.2-1.83-1.787-1.605-1.549-3.112-3.029-4.536-4.397-.824-.81-1.633-1.578-2.401-2.318-.46-.446-.922-.893-1.368-1.312-.629-.6-1.243-1.186-1.815-1.745-.21-.195-.419-.405-.614-.586-1.243-1.187-2.332-2.248-3.295-3.155-.07-.07-.14-.126-.195-.196-.084-.069-.154-.153-.238-.223a6.457 6.457 0 0 0-.32-.307c-1.118-1.284-2.067-2.499-2.849-3.658.266.042.573.126.908.266.084.028.167.069.265.111.447.196.963.475 1.522.824l.21.126c.069.042.139.083.222.139.49.307 1.006.656 1.55 1.061.098.07.195.14.307.224.112.083.237.167.35.265.167.125.348.251.516.391.237.181.488.363.74.572.53.419 1.088.852 1.66 1.326a141.863 141.863 0 0 1 4.44 3.783c.293.252.572.517.866.768.349.307.712.628 1.075.963l.907.824c.405.363.81.74 1.228 1.117 3.379 3.141 4.23 3.951 5.096 4.774 1.2 1.145 2.415 2.318 3.685 3.546.768.754 1.55 1.508 2.346 2.289.348.336.683.671 1.032 1.02a989.058 989.058 0 0 1 3.923 3.894c1.55 1.55 3.141 3.141 4.76 4.775a357.74 357.74 0 0 0 2.304 2.331l1.354 1.382c.46.461.908.935 1.368 1.396.293.293.573.6.866.894l.014.013c1.703 1.745 3.42 3.518 5.179 5.319l2.527 2.611c.041.042.083.084.111.125.866.908 1.745 1.815 2.625 2.737.46.474.921.963 1.382 1.437.907.936 1.8 1.885 2.708 2.834 2.276 2.374 4.565 4.789 6.868 7.232.698.726 1.383 1.465 2.08 2.191.699.754 1.41 1.494 2.122 2.248l2.122 2.261c.154.168.321.335.475.503.028.014.042.042.056.07l1.912 2.038c2.695 2.862 5.389 5.751 8.083 8.641.628.67 1.27 1.354 1.899 2.038.265.294.53.573.795.852l2.122 2.289c.084.098.168.182.252.28a302.554 302.554 0 0 1 2.875 3.113c2.178 2.359 4.356 4.704 6.506 7.049l.014.014 2.01 2.178.042.042c.949 1.019 1.884 2.038 2.82 3.057l4.928 5.361c.223.251.446.489.67.74l.042.056 1.842 2.01c.67.726 1.34 1.466 1.997 2.178.6.67 1.214 1.326 1.814 1.982.098.112.196.223.294.321.488.531.963 1.061 1.437 1.578.014 0 .014 0 .014.013.154.182.321.349.475.531 1.131 1.242 2.248 2.471 3.364 3.685a232.92 232.92 0 0 1 1.871 2.066c.572.643 1.145 1.257 1.717 1.899.545.6 1.089 1.201 1.633 1.787l.07.07c.363.405.74.809 1.103 1.214 1.619 1.787 3.197 3.532 4.746 5.235.601.656 1.187 1.312 1.759 1.955l.419.46.056.056c.586.642 1.159 1.284 1.731 1.913l1.885 2.08c.488.544.977 1.089 1.465 1.619l.447.503c.503.572 1.019 1.13 1.508 1.675.838.935 1.661 1.843 2.471 2.75l1.103 1.228c.181.196.363.405.544.601 3.672-2.89 7.497-6.282 11.475-10.275 8.809-8.85 9.018-23.034.614-32.206z"
          fill="#42B7A1"/>
    <path d="M131.4 343.27c5.319-.027 23.09-3.922 28.353-5.919-.042-.055-.084-.111-.14-.167-.558-.67-1.13-1.354-1.703-2.024a541.572 541.572 0 0 0-2.792-3.281c-.754-.879-1.493-1.759-2.247-2.638l-.21-.252c-7.357 2.178-14.951 3.169-22.615 3.435-1.619.055-1.438-2.457.168-2.513 6.994-.238 13.904-1.159 20.632-3.016l-.027-.042c-.698-.809-1.396-1.605-2.094-2.415-.475-.544-.936-1.075-1.424-1.619-.782-.907-1.578-1.801-2.374-2.708-.418-.475-.823-.936-1.242-1.41-1.619.684-3.378.907-5.123 1.117-2.36.293-4.719.614-7.092.837-4.788.461-9.604.628-14.421.321-1.619-.111-1.452-2.624.168-2.512 4.593.307 9.186.153 13.778-.28 2.066-.195 4.133-.46 6.185-.726 1.563-.195 3.196-.307 4.704-.781-.991-1.117-1.982-2.22-2.973-3.337-1.606-1.787-3.211-3.588-4.844-5.374-.07-.084-.14-.154-.21-.238l-1.591-1.759c-.615-.684-1.243-1.368-1.871-2.052l-3.853-4.188c-.949-1.033-1.912-2.066-2.862-3.099-1.033-1.117-2.052-2.22-3.085-3.322l-3.099-3.309c-.098 0-.181 0-.293-.028-8.823-1.549-17.408 2.792-26.217 2.764-1.633 0-1.452-2.513.167-2.513 7.776.014 15.315-3.364 23.076-3.085l.084-.516-3.727-3.937c-.949-1.005-1.899-1.996-2.848-2.987a.93.93 0 0 1-.279 0c-1.745-.14-3.379.446-5.04.921-1.661.475-3.35.852-5.011 1.284a179.929 179.929 0 0 0-11.992 3.658c-1.508.516-2.624-1.745-1.089-2.276 4.16-1.424 8.362-2.736 12.606-3.867 2.638-.698 5.612-1.87 8.46-2.191l-.028-.028c-.265-.265-.517-.545-.782-.81-.907-.949-1.815-1.885-2.708-2.82l-.949-.991a567.826 567.826 0 0 0-2.765-2.862l-.014-.028c-9.213.238-16.863 7.05-25.98 8.097-1.605.182-2.093-2.289-.474-2.485 8.558-.977 15.761-6.77 24.207-7.943-.335-.349-.684-.698-1.02-1.047-.78-.81-1.563-1.619-2.344-2.415-.838-.866-1.69-1.731-2.527-2.583-.81-.837-1.62-1.661-2.43-2.485l-2.414-2.457a859.932 859.932 0 0 1-3.574-3.629c-4.467.195-8.948-1.452-13.234-2.485-5.375-1.298-10.666-2.82-16.012-4.16-1.578-.391-.754-2.778.81-2.387 5.165 1.284 10.246 2.82 15.425 4.02 3.406.796 6.883 2.01 10.414 2.401-2.75-2.778-5.444-5.472-8.069-8.083-6.993-.67-13.75-2.764-20.702-3.797-1.606-.237-1.438-2.75.167-2.512 5.92.879 11.713 2.526 17.618 3.406-1.466-1.452-2.89-2.876-4.286-4.258l-3.518-3.476c-.837-.824-1.675-1.647-2.485-2.457-6.589-1.424-13.248-2.541-19.809-4.118-1.577-.377-.754-2.764.81-2.387 5.193 1.242 10.456 2.205 15.69 3.252-.753-.74-1.507-1.479-2.247-2.191a67.203 67.203 0 0 0-1.019-.992c-.377-.377-.768-.753-1.145-1.116-.055-.07-.125-.126-.181-.182-.628-.6-1.228-1.2-1.829-1.787-1.605-1.549-3.113-3.029-4.537-4.397-1.87.237-3.825.307-5.751.195a26.535 26.535 0 0 1-5.626-.921c-1.564-.447-.754-2.834.81-2.387 2.54.726 5.416.949 8.18.809-.46-.446-.921-.893-1.368-1.312-.628-.6-1.242-1.186-1.815-1.745-.21-.195-.419-.405-.614-.586-1.242-1.187-2.345-2.234-3.295-3.155-.07-.07-.14-.126-.195-.196-.084-.083-.154-.153-.237-.223a16.75 16.75 0 0 0-.503-.475c-.084-.069-.153-.139-.223-.209l-.852-.81c-.084-.083-.153-.153-.237-.223a17.175 17.175 0 0 1-.517-.489c-.07-.069-.153-.139-.223-.209a26.334 26.334 0 0 0-.168-.167c-.07-.07-.14-.14-.209-.196-.726-.698-1.117-1.061-1.117-1.061.028-.014.042-.028.07-.042l.084-.042a.386.386 0 0 1 .181-.042c.028 0 .07-.013.098-.013.028 0 .07-.014.098 0h.111c.308.013.698.111 1.145.293.084.042.168.069.265.111.447.196.963.475 1.522.824l.21.126c.07.042.139.083.223.139.488.307 1.005.656 1.55 1.061.097.07.195.14.306.224.112.083.238.167.35.265.167.125.348.251.516.391.237.181.489.363.74.572.53.419 1.089.852 1.661 1.326a141.744 141.744 0 0 1 4.44 3.783c.293.252.572.503.865.768.349.307.712.628 1.075.963.46.084.768.419.907.824.405.363.81.74 1.229 1.117 3.378 3.141 4.23 3.951 5.095 4.774 1.2 1.145 2.415 2.318 3.686 3.546.767.754 1.549 1.508 2.345 2.289.349.336.684.671 1.033 1.02-.028-.95.042-1.913.153-2.848.098-.95.224-1.871.307-2.722.475-5.124 1.62-10.345.894-15.496-.223-1.605 2.247-2.094 2.47-.475.643 4.495-.055 8.963-.586 13.43-.209 1.787-.376 3.574-.558 5.36-.181 1.885-.53 4.37.894 5.864.237.251.335.53.335.795 1.55 1.55 3.14 3.141 4.76 4.775.796-8.223.656-16.487.628-24.737-.014-1.634 2.513-1.438 2.513.167.042 8.976.195 17.967-.838 26.901l1.355 1.382c.46.461.907.935 1.368 1.396.488.112.781.475.865.894l.014.013c1.703 1.745 3.42 3.518 5.18 5.319l2.526 2.611c.042.042.084.084.112.125.865.908 1.745 1.815 2.624 2.737.46.474.921.963 1.382 1.437l2.708 2.834c2.276 2.374 4.565 4.789 6.869 7.232 1.493-6.464 3.518-12.746 6.673-18.609.767-1.438 2.875-.028 2.108 1.396-3.267 6.086-5.221 12.69-6.701 19.404.712.74 1.41 1.494 2.122 2.248l2.122 2.261c.153.168.321.335.474.503 2.15-5.71 9.772-21.666 10.289-23.565.419-1.577 2.82-.753 2.387.81-.531 1.941-9.591 21.359-10.009 22.434a36.89 36.89 0 0 1-.643 1.535c.098.28.07.601-.055.894 2.694 2.862 5.388 5.751 8.082 8.641.643.684 1.271 1.354 1.899 2.038.265.293.53.573.796.852 1.884-9.353 5.416-18.316 7.022-27.725.279-1.591 2.792-1.424 2.512.168-1.717 10.121-5.681 19.725-7.412 29.846.083.098.167.182.251.28a314.318 314.318 0 0 1 2.876 3.113c2.177 2.359 4.355 4.704 6.505 7.049l.014.014c1.94-6.686 7.51-22.922 9.772-26.761.824-1.396 2.932 0 2.108 1.396-2.457 4.146-8.488 22.308-9.856 27.557l.042.042a560.32 560.32 0 0 1 2.82 3.057l4.928 5.361c.851.935 1.717 1.87 2.569 2.792.67.74 1.34 1.466 1.996 2.178 2.387-4.635 9.507-16.166 11.908-19.209 1.005-1.271 3.113.111 2.108 1.396-2.471 3.127-10.624 16.235-12.16 19.725-.013.028-.027.042-.041.07.097.112.195.223.293.321.488.53.963 1.061 1.438 1.577h.014c.195.126.363.308.474.531 1.131 1.242 2.248 2.471 3.365 3.685 1.786-4.313 11.014-22.042 11.237-23.871.196-1.606 2.723-1.438 2.513.167-.209 1.648-9.828 20.787-11.88 25.757.573.642 1.145 1.256 1.717 1.898.545.6 1.089 1.201 1.634 1.787l.069.07c.363.405.74.809 1.103 1.214 1.62 1.787 3.197 3.532 4.747 5.235 4.579-7.454 9.688-14.588 14.197-22.084.838-1.396 2.946.014 2.108 1.396-4.635 7.678-9.884 14.979-14.546 22.643l.418.46.056.056c3.783-4.23 15.3-15.984 18.525-18.818 1.215-1.075 2.876.824 1.661 1.899-3.182 2.792-15.202 14.965-18.483 18.748.014.028.028.042.028.07l1.885 2.08c.489.544.977 1.089 1.466 1.619l.446.503c.377.419.74.823 1.117 1.228l.405.447c.838.935 1.661 1.843 2.471 2.75l1.103 1.229c.181.195.363.404.544.6a100.476 100.476 0 0 1-3.057 2.331 425.316 425.316 0 0 0-5.095-6.324 691.862 691.862 0 0 0-3.183-3.867c-.07-.083-.126-.153-.196-.237-6.296 3.085-24.374 6.45-30.139 6.491-1.62.07-1.438-2.443.167-2.457z"
          fill="#008264"/>
    <path d="M137.04 307.896c-11.685-13.108-23.341-25.7-34.928-37.692l1.912 2.038c2.695 2.862 5.389 5.752 8.083 8.642.628.67 1.271 1.354 1.899 2.038.265.293.53.572.795.851l2.122 2.29c.084.097.168.181.252.279a302.554 302.554 0 0 1 2.875 3.113c2.178 2.359 4.356 4.704 6.506 7.05l.014.014 2.01 2.177.042.042c.949 1.019 1.884 2.039 2.82 3.058l4.928 5.36c.223.252.446.489.67.74z"
          fill="#007344"/>
    <path d="M121.767 364.532c-5.109-1.103-8.92-5.724-8.753-11.196.14-4.3 2.737-8.139 6.687-9.856 9.465-4.132 27.264-11.936 38.893-17.324-1.522-13.918-8.683-27.264-23.676-36.659-3.951-2.485-8.139-4.691-12.494-6.673-6.617 18.26-18.497 26.608-25.631 30.112a9.615 9.615 0 0 1-6.366.767 9.714 9.714 0 0 1-3.81-1.731c-4.063-3.015-5.138-8.627-2.5-12.954 6.17-10.094 9.116-18.944 10.484-25.561-11.838-2.848-23.941-4.565-35.346-5.542.348 8.683.083 17.771-1.327 24.569-1.186 5.654-7.315 8.753-12.633 6.52a9.447 9.447 0 0 1-3.7-2.792 9.412 9.412 0 0 1-1.857-4.244c-.893-5.696-2.833-15.496-6.463-25.24-11.852-.084-21.47.447-27.082.866-3.463.251-5.403.474-5.403.474l.866 38.949c7.538 3.35 18.79 8.39 28.506 12.745 8.613 3.867 6.868 16.501-2.471 17.995-6.603 1.074-14.937 1.465-25.351.46l.586 26.538c11.656 8.027 35.78 13.136 49.795 9.018 9.074-2.638 8.614 13.807-5.193 18.525-6.603 2.276-29.134 8.418-43.276 2.038 2.932 15.817 13.276 29.609 28.325 36.115 35.095 15.16 65.961-19.279 77.199-34.104-2.527-6.241-6.017-13.639-10.861-22.197-5.11-9.046-11.74-19.39-20.312-31.075-1.41-1.898 21.457 20.284 35.472 47.199.14-.181.21-.307.21-.307 14.644-1.564 27.934-12.425 36.114-26.859l-25.546 1.619a10.76 10.76 0 0 1-3.086-.195z"
          fill="#ECC93E"/>
    <path d="M76.788 413.713c8.432-4.579 17.534-12.355 23.718-19.684 1.843-2.192 3.49-4.621 5.138-7.022a220.056 220.056 0 0 0-4.914-9.604c-1.061 1.703-3.7 5.779-6.254 8.781-3.127 3.657-6.561 6.896-10.275 9.981-8.362 6.924-18.469 10.833-28.87 13.667-5.318 1.452-12.354 3.155-17.435 3.085 4.914-1.913 19.502-6.338 30.098-12.089 8.431-4.579 17.533-12.355 23.718-19.684 2.275-2.694 4.23-5.738 6.254-8.683a213.473 213.473 0 0 0-3.17-5.347 61.246 61.246 0 0 1-3.015 2.611c-5.737 4.69-12.633 7.301-19.739 9.185-3.644.964-8.432 2.094-11.894 2.025 3.35-1.271 13.318-4.23 20.577-8.097 4.077-2.192 8.39-5.459 12.076-8.949-.294-.474-.587-.949-.894-1.424-1.563.489-4.02 1.187-6.17 1.55-3.239.544-6.436.74-9.73.726-7.413-.042-14.393-2.415-21.066-5.472-3.42-1.578-7.846-3.756-10.47-6.017 3.406 1.145 12.969 5.207 21.024 6.84 6.407 1.299 14.574 1.215 21.01.084 1.144-.195 2.289-.475 3.42-.782-1.326-1.675-3.895-4.9-7.092-8.906-.014 0-.014.014-.028.014 0 0-.433.083-1.103.195-1.088.196-2.806.447-4.271.489-2.22.084-4.384-.084-6.59-.377-4.955-.684-9.422-2.904-13.624-5.542-2.15-1.354-4.914-3.211-6.478-4.956 2.178 1.075 8.223 4.649 13.471 6.449 4.175 1.438 9.647 2.108 14.058 1.927a27.711 27.711 0 0 0 2.36-.209c.167-.028.348-.056.516-.07-3.713-4.677-8.069-10.135-12.257-15.398-.126.084-.251.181-.363.251 0 0-.433.084-1.103.196-1.089.195-2.806.432-4.272.488-2.22.084-4.383-.084-6.589-.377-4.955-.684-9.423-2.903-13.625-5.542-2.15-1.354-4.913-3.211-6.477-4.956 2.178 1.075 8.222 4.649 13.471 6.45 4.174 1.438 9.647 2.108 14.058 1.926a26.832 26.832 0 0 0 2.36-.209c.32-.042.656-.098.99-.14-8.138-10.232-15.272-19.181-15.272-19.181s10.01 10.694 20.912 23.062c0-.056.014-.097.014-.153.042-.615.084-1.229.084-1.843-.028-3.434-.754-7.664-2.024-10.861-1.606-4.02-4.607-8.571-5.528-10.219 1.41 1.145 2.96 3.225 4.104 4.844 2.22 3.169 4.104 6.548 4.83 10.373.321 1.703.517 3.378.545 5.095.014 1.145-.112 2.485-.224 3.337-.056.516-.112.865-.112.865-.055.084-.111.182-.167.279 1.2 1.368 2.401 2.75 3.602 4.146.125-.251.265-.502.377-.767.363-.754.698-1.508.99-2.276 1.648-4.313 2.793-9.967 2.737-14.588-.056-5.807-1.605-12.983-1.94-15.496 1.214 2.122 2.135 5.487 2.778 8.055 1.228 5.04 1.954 10.205.99 15.342-.432 2.29-.99 4.481-1.8 6.659-.53 1.438-1.354 3.057-1.899 4.063-.265.502-.46.851-.53.977 3.392 3.95 6.673 7.873 9.59 11.517.112-.224.224-.433.321-.656.363-.754.698-1.508.992-2.276 1.647-4.313 2.792-9.967 2.736-14.588-.056-5.807-1.606-12.983-1.94-15.496 1.214 2.122 2.135 5.487 2.777 8.055 1.229 5.04 1.955 10.205.992 15.342-.433 2.29-.992 4.482-1.801 6.659-.53 1.438-1.355 3.058-1.899 4.063-.265.488-.46.851-.53.977.181.237.362.46.544.698.6-.405 1.215-.81 1.815-1.257 4.118-2.959 8.152-6.589 11.056-10.176 5.165-6.394 9.954-15.622 11.838-18.679-.586 3.406-2.596 7.915-4.23 11.308-3.196 6.617-7.063 12.899-12.745 17.645a63.65 63.65 0 0 1-3.127 2.471 52.068 52.068 0 0 1-2.304 1.605c.224.266.433.545.657.824.167.223.348.447.53.684.754.963 1.522 1.941 2.303 2.96a204.614 204.614 0 0 1 8.656 12.243c.377.041.767.097 1.158.125 4.132.405 8.544.238 12.257-.628 6.603-1.55 14.463-5.5 17.255-6.617-2.164 2.234-5.808 4.356-8.628 5.905-5.486 2.988-11.223 5.291-17.268 5.249-.768 0-1.522-.042-2.276-.084 1.913 3.113 3.77 6.324 5.473 9.605v.014c-.503.795-1.983 3.029-4.314 6.058a152.298 152.298 0 0 0-1.647-3.908c-1.298 1.968-3.099 4.551-4.858 6.617-3.127 3.657-6.561 6.896-10.275 9.981-8.362 6.924-18.469 10.833-28.869 13.667-5.319 1.452-12.355 3.155-17.436 3.085 4.984-1.899 19.572-6.338 30.181-12.089z"
          fill="#E6A800"/>
    <path d="M510.037 304.922c1.675-1.828 3.49-3.797 5.416-5.877l21.122 12.969s-7.525-12.201-13.318-21.359c3.476-3.685 7.189-7.622 11.112-11.698l18.469 16.403s-5.277-14.449-9.59-25.519c14.379-14.63 30.754-30.405 47.226-44.337l13.416 24.29-3.923-32.122a302.126 302.126 0 0 1 3.7-2.903c2.303 11.782 5.36 27.18 5.458 27.668l-.405-31.521a281.08 281.08 0 0 1 4.984-3.644c.782 12.313 1.898 29.581 1.996 28.772.098-.81 1.843-19.167 3.071-32.29 8.348-5.667 16.417-10.344 23.942-13.611-1.536 6.366-3.253 15.649-1.606 20.521.419 1.257 2.178 1.271 2.597.014l7.873-23.787a53.98 53.98 0 0 1 4.258-1.061c3.7-.754 7.231-.252 10.275 1.13 7.524 3.421 12.061 12.299 8.767 21.01-4.216 11.182-13.36 28.576-32.625 55.114-10.191.95-25.952 2.96-25.952 2.96l16.25 10.023c-6.408 8.362-13.695 17.506-21.987 27.487l-1.759 2.206-31.815-10.302 20.256 24.876-26.063 32.82c-6.268 7.888-16.906 10.945-26.385 7.469-5.57-2.052-12.229-5.403-19.655-10.861a432.376 432.376 0 0 1 4.341-5.403l.754-.921a657.3 657.3 0 0 1 3.183-3.867c.07-.07.126-.153.195-.223l1.62-1.955c.042-.055.083-.111.139-.167a624.891 624.891 0 0 1 4.495-5.305c.754-.879 1.494-1.759 2.248-2.638l.209-.252c.601-.698 1.201-1.396 1.815-2.094l.028-.028c.698-.809 1.396-1.605 2.094-2.415.475-.544.935-1.075 1.424-1.619.782-.907 1.577-1.801 2.373-2.708l1.243-1.41c.6-.684 1.2-1.354 1.801-2.024.991-1.103 1.982-2.22 2.973-3.337 1.605-1.787 3.211-3.588 4.844-5.374.07-.084.14-.154.21-.238l1.591-1.759c.614-.684 1.242-1.368 1.871-2.052l3.853-4.188c.949-1.033 1.912-2.066 2.861-3.099 1.033-1.103 2.052-2.22 3.086-3.322l3.099-3.309a747.918 747.918 0 0 1 3.183-3.378l3.727-3.937a942.622 942.622 0 0 1 5.193-5.444l.028-.028c.265-.266.516-.545.782-.81.907-.949 1.8-1.885 2.708-2.82l.949-.991c.921-.963 1.843-1.913 2.764-2.862l.014-.028c.754-.782 1.494-1.549 2.248-2.317.335-.349.684-.698 1.019-1.047.782-.81 1.577-1.606 2.345-2.415.838-.866 1.689-1.731 2.527-2.583.81-.837 1.633-1.661 2.429-2.485.81-.823 1.619-1.633 2.415-2.457 1.2-1.214 2.401-2.429 3.574-3.629a451.41 451.41 0 0 0 2.596-2.625c2.75-2.778 5.445-5.472 8.069-8.083.977-.977 1.955-1.94 2.918-2.903 1.466-1.452 2.89-2.876 4.286-4.258 1.186-1.187 2.373-2.345 3.517-3.476.838-.824 1.676-1.647 2.485-2.457 1.131-1.103 2.234-2.192 3.309-3.253.768-.74 1.508-1.48 2.247-2.192.335-.335.684-.67 1.02-.991.376-.377.767-.754 1.144-1.116.056-.07.126-.126.182-.182.628-.6 1.228-1.2 1.828-1.787 1.606-1.549 3.113-3.029 4.537-4.397.824-.81 1.634-1.578 2.402-2.318.46-.446.921-.893 1.368-1.312.628-.6 1.242-1.186 1.814-1.745.21-.195.419-.405.615-.586 1.242-1.187 2.331-2.248 3.294-3.155.07-.07.14-.126.196-.196.083-.069.153-.153.237-.223a6.5 6.5 0 0 1 .321-.307c1.117-1.284 2.066-2.499 2.848-3.658a3.997 3.997 0 0 0-.907.266c-.084.028-.168.069-.266.111-.446.196-.963.475-1.521.824l-.21.126c-.07.042-.139.083-.223.139-.489.307-1.005.656-1.55 1.061-.097.07-.195.14-.307.224-.112.083-.237.167-.349.265-.167.125-.349.251-.516.391-.238.181-.489.363-.74.572-.531.419-1.089.852-1.661 1.326a141.488 141.488 0 0 0-4.44 3.783c-.293.252-.572.517-.865.768a60.29 60.29 0 0 0-1.075.963l-.908.824c-.404.363-.809.74-1.228 1.117-3.378 3.141-4.23 3.951-5.095 4.774a727.85 727.85 0 0 0-3.686 3.546c-.768.754-1.549 1.508-2.345 2.289-.349.336-.684.671-1.033 1.02-1.284 1.27-2.597 2.568-3.923 3.894-1.549 1.55-3.141 3.141-4.76 4.775l-2.29 2.331-1.354 1.382c-.461.461-.907.935-1.368 1.396-.293.293-.572.6-.865.894l-.014.013c-1.704 1.745-3.421 3.518-5.18 5.319l-2.526 2.611c-.042.042-.084.084-.112.125-.866.908-1.745 1.815-2.624 2.737-.461.474-.922.963-1.383 1.437-.907.936-1.8 1.885-2.708 2.834a1218.461 1218.461 0 0 0-6.868 7.232c-.698.726-1.382 1.465-2.08 2.191-.698.754-1.41 1.494-2.122 2.248l-2.122 2.261c-.154.168-.321.335-.475.503-.028.014-.041.042-.055.07l-1.913 2.038a2439.767 2439.767 0 0 0-8.083 8.641c-.628.67-1.27 1.354-1.898 2.038-.266.294-.531.573-.796.852l-2.122 2.289c-.084.098-.168.182-.251.28a291.815 291.815 0 0 0-2.876 3.113c-2.178 2.359-4.356 4.704-6.505 7.049l-.014.014-2.011 2.178-.041.042a522.965 522.965 0 0 0-2.82 3.057l-4.928 5.361c-.224.251-.447.489-.67.74l-.042.056-1.843 2.01c-.67.726-1.34 1.466-1.996 2.178-.601.67-1.215 1.326-1.815 1.982-.098.112-.195.223-.293.321-.489.531-.963 1.061-1.438 1.578-.014 0-.014 0-.014.013-.154.182-.321.349-.475.531-1.13 1.242-2.247 2.471-3.364 3.685-.628.684-1.256 1.382-1.871 2.066-.572.643-1.144 1.257-1.717 1.899-.544.6-1.089 1.201-1.633 1.787l-.07.07c-.363.405-.74.809-1.103 1.214-1.619 1.787-3.197 3.532-4.746 5.235-.6.656-1.187 1.312-1.759 1.955l-.419.46-.056.056c-.586.642-1.158 1.284-1.731 1.913l-1.884 2.08c-.489.544-.978 1.089-1.466 1.619l-.447.503c-.502.572-1.019 1.13-1.508 1.675-.837.935-1.661 1.843-2.47 2.75l-1.103 1.228c-.182.196-.363.405-.545.601-3.671-2.89-7.496-6.282-11.475-10.275-8.823-8.85-9.032-23.034-.628-32.206z"
          fill="#42B7A1"/>
    <path d="M563.601 343.27c-5.319-.027-23.09-3.922-28.353-5.919.042-.055.084-.111.14-.167.558-.67 1.131-1.354 1.703-2.024a580.256 580.256 0 0 1 2.792-3.281c.754-.879 1.494-1.759 2.248-2.638l.209-.252c7.357 2.178 14.951 3.169 22.615 3.435 1.62.055 1.438-2.457-.167-2.513-6.994-.238-13.904-1.159-20.633-3.016l.028-.042c.698-.809 1.396-1.605 2.094-2.415.474-.544.949-1.075 1.424-1.619.781-.907 1.577-1.801 2.373-2.708l1.242-1.41c1.62.684 3.379.907 5.124 1.117 2.373.293 4.718.614 7.091.837 4.789.461 9.605.628 14.421.321 1.619-.111 1.452-2.624-.168-2.512-4.592.307-9.185.153-13.778-.28-2.066-.195-4.132-.46-6.184-.726-1.564-.195-3.197-.307-4.705-.781.991-1.117 1.982-2.22 2.974-3.337 1.605-1.787 3.21-3.588 4.844-5.374.07-.084.139-.154.209-.238l1.592-1.759c.614-.684 1.242-1.368 1.87-2.052l3.853-4.188c.95-1.033 1.913-2.066 2.862-3.099 1.033-1.117 2.052-2.22 3.085-3.322l3.099-3.309c.098 0 .182 0 .293-.028 8.823-1.549 17.409 2.792 26.217 2.764 1.634 0 1.452-2.513-.167-2.513-7.776.014-15.314-3.364-23.076-3.085l-.084-.516 3.727-3.937c.95-1.005 1.899-1.996 2.848-2.987a.937.937 0 0 0 .28 0c1.745-.14 3.378.446 5.039.921 1.661.475 3.35.852 5.012 1.284a179.855 179.855 0 0 1 11.991 3.658c1.508.516 2.639-1.745 1.089-2.276-4.16-1.424-8.362-2.736-12.606-3.867-2.638-.698-5.612-1.87-8.459-2.191l.028-.028c.265-.265.516-.545.781-.81.908-.949 1.815-1.885 2.709-2.82l.949-.991c.921-.963 1.842-1.913 2.764-2.862l.014-.028c9.213.238 16.863 7.05 25.979 8.097 1.606.182 2.094-2.289.475-2.485-8.557-.977-15.761-6.77-24.207-7.943.335-.349.684-.698 1.019-1.047.782-.81 1.564-1.619 2.346-2.415.837-.866 1.689-1.731 2.526-2.583.81-.837 1.62-1.661 2.43-2.485l2.415-2.457c1.2-1.214 2.401-2.429 3.573-3.629 4.468.195 8.949-1.452 13.234-2.485 5.375-1.298 10.666-2.82 16.012-4.16 1.578-.391.754-2.778-.809-2.387-5.165 1.284-10.247 2.82-15.426 4.02-3.406.796-6.882 2.01-10.414 2.401a1472.7 1472.7 0 0 1 8.069-8.083c7.008-.67 13.764-2.764 20.702-3.797 1.606-.237 1.438-2.75-.167-2.512-5.919.879-11.713 2.526-17.618 3.406 1.466-1.452 2.89-2.876 4.286-4.258l3.518-3.476c.838-.824 1.675-1.647 2.485-2.457 6.589-1.424 13.248-2.541 19.809-4.118 1.578-.377.754-2.764-.81-2.387-5.193 1.242-10.456 2.205-15.691 3.252.754-.74 1.508-1.479 2.248-2.191.335-.335.684-.671 1.019-.992.377-.377.768-.753 1.145-1.116.056-.07.125-.126.181-.182.628-.6 1.229-1.2 1.829-1.787 1.605-1.549 3.113-3.029 4.537-4.397a31.54 31.54 0 0 0 5.751.195 26.52 26.52 0 0 0 5.626-.921c1.564-.447.754-2.834-.809-2.387-2.541.726-5.417.949-8.181.809.461-.446.922-.893 1.368-1.312.628-.6 1.243-1.186 1.815-1.745.209-.195.419-.405.614-.586 1.243-1.187 2.346-2.234 3.295-3.155.07-.07.139-.126.195-.196.084-.083.154-.153.238-.223.167-.167.335-.321.502-.475.084-.069.154-.139.223-.209l.852-.81c.084-.083.154-.153.237-.223.182-.167.363-.335.517-.489.07-.069.153-.139.223-.209l.168-.167c.07-.07.139-.14.209-.196.726-.698 1.117-1.061 1.117-1.061-.028-.014-.042-.028-.07-.042l-.084-.042a.38.38 0 0 0-.181-.042c-.028 0-.07-.013-.098-.013-.028 0-.07-.014-.098 0h-.111c-.307.013-.698.111-1.145.293-.084.042-.167.069-.265.111a12.24 12.24 0 0 0-1.522.824l-.209.126c-.07.042-.14.083-.224.139a23.85 23.85 0 0 0-1.549 1.061c-.098.07-.196.14-.307.224-.112.083-.238.167-.349.265-.168.125-.349.251-.517.391-.237.181-.488.363-.74.572-.53.419-1.088.852-1.661 1.326a141.526 141.526 0 0 0-4.439 3.783c-.293.252-.572.503-.866.768a60.29 60.29 0 0 0-1.075.963c-.46.084-.767.419-.907.824-.405.363-.81.74-1.228 1.117-3.379 3.141-4.23 3.951-5.096 4.774a773.349 773.349 0 0 0-3.685 3.546c-.768.754-1.55 1.508-2.346 2.289-.349.336-.684.671-1.033 1.02.028-.95-.041-1.913-.153-2.848-.098-.95-.224-1.871-.307-2.722-.475-5.124-1.62-10.345-.894-15.496.224-1.605-2.247-2.094-2.471-.475-.642 4.495.056 8.963.587 13.43.209 1.787.377 3.574.558 5.36.182 1.885.531 4.37-.893 5.864-.238.251-.335.53-.335.795-1.55 1.55-3.141 3.141-4.761 4.775-.795-8.223-.656-16.487-.628-24.737.014-1.634-2.513-1.438-2.513.167-.042 8.976-.195 17.967.838 26.901l-1.354 1.382c-.461.461-.908.935-1.368 1.396a1.117 1.117 0 0 0-.866.894l-.014.013c-1.703 1.745-3.42 3.518-5.179 5.319l-2.527 2.611a.883.883 0 0 0-.111.125c-.866.908-1.745 1.815-2.625 2.737-.46.474-.921.963-1.382 1.437-.893.936-1.801 1.885-2.708 2.834a1186.836 1186.836 0 0 0-6.868 7.232c-1.494-6.464-3.518-12.746-6.673-18.609-.768-1.438-2.876-.028-2.108 1.396 3.266 6.086 5.221 12.69 6.701 19.404-.712.74-1.41 1.494-2.122 2.248l-2.122 2.261c-.154.168-.321.335-.475.503-2.15-5.71-9.772-21.666-10.288-23.565-.419-1.577-2.82-.753-2.388.81.531 1.941 9.591 21.359 10.01 22.434.125.335.46 1.131.642 1.535-.098.28-.07.601.056.894a2350.043 2350.043 0 0 0-8.083 8.641c-.642.684-1.271 1.354-1.899 2.038-.265.293-.53.573-.795.852-1.885-9.353-5.417-18.316-7.022-27.725-.279-1.591-2.792-1.424-2.513.168 1.717 10.121 5.682 19.725 7.413 29.846-.084.098-.168.182-.252.28-.963 1.033-1.926 2.066-2.875 3.113-2.178 2.359-4.356 4.704-6.506 7.049l-.014.014c-1.94-6.686-7.51-22.922-9.772-26.761-.823-1.396-2.931 0-2.108 1.396 2.457 4.146 8.488 22.308 9.856 27.557l-.042.042c-.949 1.019-1.884 2.038-2.82 3.057l-4.928 5.361c-.851.935-1.717 1.87-2.568 2.792-.67.74-1.34 1.466-1.996 2.178-2.388-4.635-9.507-16.166-11.908-19.209-1.005-1.271-3.113.111-2.108 1.396 2.471 3.127 10.623 16.235 12.159 19.725.014.028.028.042.042.07a7.236 7.236 0 0 1-.293.321c-.489.53-.964 1.061-1.438 1.577h-.014a1.353 1.353 0 0 0-.475.531c-1.131 1.242-2.247 2.471-3.364 3.685-1.787-4.313-11.015-22.042-11.238-23.871-.195-1.606-2.722-1.438-2.513.167.21 1.648 9.828 20.787 11.88 25.757-.572.642-1.145 1.256-1.717 1.898-.544.6-1.089 1.201-1.633 1.787l-.07.07c-.363.405-.74.809-1.103 1.214-1.619 1.787-3.197 3.532-4.746 5.235-4.579-7.454-9.689-14.588-14.198-22.084-.837-1.396-2.945.014-2.108 1.396 4.635 7.678 9.884 14.979 14.547 22.643l-.419.46-.056.056c-3.783-4.23-15.3-15.984-18.525-18.818-1.214-1.075-2.876.824-1.661 1.899 3.183 2.792 15.202 14.965 18.483 18.748-.014.028-.028.042-.028.07l-1.885 2.08c-.488.544-.977 1.089-1.465 1.619l-.447.503c-.377.419-.74.823-1.117 1.228l-.405.447c-.837.935-1.661 1.843-2.471 2.75l-1.102 1.229c-.182.195-.363.404-.545.6 1.033.823 2.052 1.591 3.057 2.331a425.316 425.316 0 0 1 5.096-6.324 691.862 691.862 0 0 1 3.183-3.867l.195-.237c6.296 3.085 24.374 6.45 30.14 6.491 1.619.07 1.438-2.443-.168-2.457z"
          fill="#008264"/>
    <path d="M557.961 307.896c11.685-13.108 23.342-25.7 34.928-37.692l-1.912 2.038a2350.468 2350.468 0 0 0-8.083 8.642c-.628.67-1.27 1.354-1.899 2.038-.265.293-.53.572-.795.851l-2.122 2.29c-.084.097-.168.181-.252.279-.963 1.033-1.926 2.066-2.875 3.113-2.178 2.359-4.356 4.704-6.506 7.05l-.014.014-2.01 2.177-.042.042c-.949 1.019-1.884 2.039-2.82 3.058l-4.928 5.36c-.223.252-.446.489-.67.74z"
          fill="#007344"/>
    <path d="M573.234 364.532c5.109-1.103 8.92-5.724 8.753-11.196a11.112 11.112 0 0 0-6.687-9.856c-9.465-4.132-27.264-11.936-38.893-17.324 1.522-13.918 8.683-27.264 23.676-36.659 3.951-2.485 8.139-4.691 12.495-6.673 6.617 18.26 18.497 26.608 25.63 30.112a9.615 9.615 0 0 0 6.366.767 9.717 9.717 0 0 0 3.811-1.731c4.062-3.015 5.137-8.627 2.499-12.954-6.17-10.094-9.116-18.944-10.484-25.561 11.838-2.848 23.941-4.565 35.347-5.542-.349 8.683-.084 17.771 1.326 24.569 1.186 5.654 7.315 8.753 12.634 6.52a9.45 9.45 0 0 0 3.699-2.792 9.413 9.413 0 0 0 1.857-4.244c.893-5.696 2.834-15.496 6.463-25.24 11.852-.084 21.471.447 27.083.866 3.462.251 5.402.474 5.402.474l-.865 38.949c-7.539 3.35-18.79 8.39-28.507 12.745-8.613 3.867-6.868 16.501 2.471 17.995 6.603 1.074 14.937 1.465 25.352.46l-.587 26.538c-11.656 8.027-35.779 13.136-49.795 9.018-9.074-2.638-8.613 13.807 5.193 18.525 6.603 2.276 29.135 8.418 43.276 2.038-2.931 15.817-13.276 29.609-28.325 36.115-35.095 15.16-65.961-19.279-77.199-34.104 2.527-6.241 6.017-13.639 10.861-22.197 5.11-9.046 11.741-19.39 20.312-31.075 1.41-1.898-21.456 20.284-35.472 47.199-.14-.181-.21-.307-.21-.307-14.644-1.564-27.934-12.425-36.114-26.859l25.547 1.619c1.061.084 2.108.014 3.085-.195z"
          fill="#ECC93E"/>
    <path d="M618.213 413.713c-8.432-4.579-17.534-12.355-23.718-19.684-1.843-2.192-3.49-4.621-5.137-7.022a218.949 218.949 0 0 1 4.914-9.604c1.06 1.703 3.699 5.779 6.254 8.781 3.127 3.657 6.561 6.896 10.274 9.981 8.362 6.924 18.469 10.833 28.869 13.667 5.319 1.452 12.355 3.155 17.436 3.085-4.913-1.913-19.502-6.338-30.097-12.089-8.432-4.579-17.534-12.355-23.718-19.684-2.276-2.694-4.23-5.738-6.254-8.683a215.222 215.222 0 0 1 3.168-5.347 61.637 61.637 0 0 0 3.016 2.611c5.737 4.69 12.634 7.301 19.739 9.185 3.644.964 8.432 2.094 11.894 2.025-3.35-1.271-13.318-4.23-20.577-8.097-4.076-2.192-8.39-5.459-12.075-8.949.293-.474.586-.949.893-1.424 1.564.489 4.021 1.187 6.171 1.55 3.238.544 6.435.74 9.73.726 7.412-.042 14.392-2.415 21.079-5.472 3.42-1.578 7.846-3.756 10.47-6.017-3.406 1.145-12.969 5.207-21.024 6.84-6.407 1.299-14.574 1.215-21.009.084-1.145-.195-2.29-.475-3.421-.782 1.327-1.675 3.895-4.9 7.092-8.906.014 0 .014.014.028.014 0 0 .433.083 1.103.195 1.089.196 2.806.447 4.272.489 2.219.084 4.383-.084 6.589-.377 4.956-.684 9.423-2.904 13.625-5.542 2.15-1.354 4.914-3.211 6.477-4.956-2.178 1.075-8.222 4.649-13.471 6.449-4.174 1.438-9.647 2.108-14.058 1.927a27.71 27.71 0 0 1-2.359-.209 6.542 6.542 0 0 0-.517-.07c3.714-4.677 8.069-10.135 12.257-15.398.126.084.251.181.363.251 0 0 .433.084 1.103.196 1.089.195 2.806.432 4.272.488 2.219.084 4.383-.084 6.589-.377 4.956-.684 9.423-2.903 13.625-5.542 2.15-1.354 4.914-3.211 6.477-4.956-2.178 1.075-8.222 4.649-13.471 6.45-4.174 1.438-9.647 2.108-14.058 1.926a26.825 26.825 0 0 1-2.359-.209c-.321-.042-.656-.098-.991-.14 8.138-10.232 15.272-19.181 15.272-19.181s-10.009 10.694-20.912 23.062c0-.056-.014-.097-.014-.153-.042-.615-.084-1.229-.084-1.843.028-3.434.754-7.664 2.024-10.861 1.606-4.02 4.607-8.571 5.529-10.219-1.41 1.145-2.96 3.225-4.105 4.844-2.219 3.169-4.104 6.548-4.83 10.373-.321 1.703-.516 3.378-.544 5.095-.014 1.145.111 2.485.223 3.337.056.516.112.865.112.865.056.084.111.182.167.279a547.48 547.48 0 0 0-3.601 4.146c-.126-.251-.266-.502-.377-.767a29.454 29.454 0 0 1-.991-2.276c-1.648-4.313-2.793-9.967-2.737-14.588.056-5.807 1.606-12.983 1.941-15.496-1.215 2.122-2.136 5.487-2.778 8.055-1.229 5.04-1.955 10.205-.991 15.342.432 2.29.991 4.481 1.8 6.659.531 1.438 1.355 3.057 1.899 4.063.265.502.461.851.53.977-3.392 3.95-6.672 7.873-9.59 11.517-.112-.224-.223-.433-.321-.656a29.454 29.454 0 0 1-.991-2.276c-1.634-4.313-2.792-9.967-2.736-14.588.055-5.807 1.605-12.983 1.94-15.496-1.215 2.122-2.136 5.487-2.778 8.055-1.228 5.04-1.954 10.205-.991 15.342.433 2.29.991 4.482 1.801 6.659.53 1.438 1.354 3.058 1.898 4.063.265.488.461.851.531.977-.182.237-.363.46-.545.698-.6-.405-1.214-.81-1.815-1.257-4.118-2.959-8.152-6.589-11.056-10.176-5.165-6.394-9.953-15.622-11.838-18.679.586 3.406 2.597 7.915 4.23 11.308 3.197 6.617 7.064 12.899 12.745 17.645a64.077 64.077 0 0 0 3.127 2.471 52.086 52.086 0 0 0 2.304 1.605c-.224.266-.433.545-.656.824-.168.223-.349.447-.531.684-.754.963-1.521 1.941-2.303 2.96a203.977 203.977 0 0 0-8.655 12.243c-.391.041-.768.097-1.159.125-4.132.405-8.544.238-12.257-.628-6.603-1.55-14.462-5.5-17.254-6.617 2.163 2.234 5.807 4.356 8.627 5.905 5.486 2.988 11.224 5.291 17.268 5.249.768 0 1.522-.042 2.276-.084-1.913 3.113-3.769 6.324-5.472 9.605v.014c.502.795 1.982 3.029 4.313 6.058a155.95 155.95 0 0 1 1.647-3.908c1.299 1.968 3.1 4.551 4.859 6.617 3.127 3.657 6.561 6.896 10.274 9.981 8.362 6.924 18.469 10.833 28.869 13.667 5.319 1.452 12.355 3.155 17.436 3.085-4.997-1.899-19.586-6.338-30.195-12.089z"
          fill="#E6A800"/>
    <path d="M194.429 233.406H90.916v-24.598l96.087-137.827h39.465v134.114h26.593v28.311h-26.593v43.457h-32.025v-43.457h-.014zm1.424-28.311V104.15l-67.482 100.945h67.482z"
          fill="#1B1B1B"/>
    <path d="M355.527.553c58.339 0 74.351 45.747 74.351 105.23 0 60.628-16.012 106.375-74.351 106.375s-74.351-45.76-74.351-106.375c0-59.483 16.012-105.23 74.351-105.23zm0 29.735c-38.027 0-42.326 36.603-42.326 75.495 0 40.889 4.285 76.641 42.326 76.641 38.027 0 42.327-35.752 42.327-76.641-.014-38.892-4.3-75.495-42.327-75.495z"
          fill="#FFB400"/>
    <path d="M529.092 234.746H425.579v-24.598l96.087-137.827h39.465v134.114h26.593v28.311h-26.593v43.457h-32.025v-43.457h-.014zm1.438-28.311V105.49l-67.482 100.945h67.482zM194.206 309.836h-92.75V412.75h92.75V309.836z"
          fill="#1B1B1B"/>
    <path d="M194.206 309.836h-92.75v95.25h92.75v-95.25z" fill="#1B1B1B"/>
    <path d="M187.63 320.432h.984v-6.24h-1.78v.891h.796v5.349zM149.059 394.671c-19.655 0-35.598-14.742-35.598-35.696 0-20.856 15.943-35.598 35.598-35.598 19.852 0 35.598 14.742 35.598 35.598 0 20.954-15.746 35.696-35.598 35.696zm0-9.925c13.835 0 23.872-10.024 23.872-25.771 0-15.746-10.023-25.574-23.872-25.574-13.834 0-23.871 9.828-23.871 25.574 0 15.747 10.037 25.771 23.871 25.771z"
          fill="#fff"/>
    <path d="M611.122 421.544H82.987a4.397 4.397 0 1 1 0-8.794h528.135a4.396 4.396 0 1 1 0 8.794z" fill="#542B2B"/>
    <path d="M319.735 309.836h-92.751V412.75h92.751V309.836z" fill="#FFB400"/>
    <path d="M319.735 309.836h-92.751v95.25h92.751v-95.25z" fill="#FFB400"/>
    <path d="M312.485 320.432h.984v-6.24h-1.78v.891h.796v5.349zM273.36 394.671c-19.656 0-35.598-14.742-35.598-35.696 0-20.856 15.942-35.598 35.598-35.598 19.851 0 35.598 14.742 35.598 35.598 0 20.954-15.733 35.696-35.598 35.696zm0-9.925c13.834 0 23.871-10.024 23.871-25.771 0-15.746-10.023-25.574-23.871-25.574-13.835 0-23.872 9.828-23.872 25.574.014 15.747 10.037 25.771 23.872 25.771z"
          fill="#fff"/>
    <path d="M607.338 309.836h-92.75V412.75h92.75V309.836z" fill="#1B1B1B"/>
    <path d="M607.338 309.836h-92.75v95.25h92.75v-95.25z" fill="#1B1B1B"/>
    <path d="M596.124 315.732h.95c.06-.437.376-.848 1.061-.848.668 0 1.019.36 1.019.899 0 .667-.54.924-1.421.933h-.231v.804h.222c1.019 0 1.549.283 1.549 1.104 0 .582-.359 1.027-1.087 1.027-.736 0-1.164-.445-1.206-1.027h-.942c.06 1.224.976 1.84 2.157 1.84 1.301 0 2.003-.753 2.003-1.746 0-.864-.42-1.403-1.07-1.6v-.034c.488-.163.958-.668.958-1.412 0-.908-.676-1.627-1.917-1.627-1.138 0-1.977.608-2.045 1.687zM561.27 393.108c-13.932 0-24.667-7.623-24.667-19.949h12.228c.503 5.709 4.51 10.33 12.439 10.33 8.027 0 12.536-4.313 12.536-10.232 0-16.85-36.994-5.919-36.994-31.592 0-12.229 9.73-19.851 23.969-19.851 13.332 0 22.769 7.022 23.76 18.958h-12.634c-.404-4.719-4.509-9.032-11.726-9.228-6.617-.195-11.726 3.015-11.726 9.73 0 15.747 36.896 5.919 36.896 31.382-.014 10.428-8.544 20.452-24.081 20.452z"
          fill="#fff"/>
    <path d="m328.11 183.526 4.397.712 11.531 2.862 29.958-.894 10.68-17.24-4.635-10.833-48.553 2.08c0-.014-3.936 10.023-3.378 23.313z"
          fill="#542B2B"/>
    <path d="m371.33 239.031-4.663 14.589-.027 1.424-8.041-.936.418-1.368 9.158-78.846c.042-.377.112-.74.21-1.089.223-.893.753-2.61 1.689-4.411 3.183-6.101 11.796-5.724 14.602.558 1.954 4.37 2.596 9.451 2.331 15.077v.014c-.754 15.789-8.753 35.696-15.677 54.988z"
          fill="#542B2B"/>
    <path d="M365.132 277.365a6.062 6.062 0 0 1-5.542 2.318c-2.345-.265-4.495-1.843-5.249-4.439l-.628-2.22a6.257 6.257 0 0 1 .042-3.546l4.844-15.356 8.041.935-.21 18.581c0 1.34-.46 2.666-1.298 3.727z"
          fill="#ECC93E"/>
    <path d="m332.061 239.268 1.814 15.217-.251 1.396 8.083.6-.154-1.424 5.919-79.153c.028-.377.042-.74 0-1.117a21.08 21.08 0 0 0-.823-4.649c-1.969-6.589-10.512-7.859-14.449-2.205-2.736 3.923-4.341 8.795-5.137 14.365v.014c-2.234 15.635 1.857 36.7 4.998 56.956z"
          fill="#542B2B"/>
    <path d="M330.902 278.077a6.13 6.13 0 0 0 5.012 3.323c2.345.181 4.76-.963 5.988-3.365l1.047-2.066a6.268 6.268 0 0 0 .628-3.49l-1.856-15.998-8.083-.6-3.308 18.287a6.108 6.108 0 0 0 .572 3.909z"
          fill="#ECC93E"/>
    <path d="M374.359 132.544c-2.233 8.474 2.304 18.651 6.143 26.538 0 0-21.764 15.482-49.028 1.117l2.248-5.947c2.68-6.449 3.476-13.527 2.247-20.395l-4.565-25.687c-1.061-5.989 2.485-11.838 8.293-13.68l6.184-1.955 1.926-.6a23.152 23.152 0 0 1 7.106-1.075h2.527c3.769.014 7.482.921 10.819 2.666l5.835 3.043a12.115 12.115 0 0 1 6.101 13.849l-5.836 22.126z"
          fill="#FE6120"/>
    <path d="M356.197 97.142a4.763 4.763 0 0 1-4.76-4.788l.027-9.647c0-.726.587-1.312 1.313-1.312l6.924.014a1.31 1.31 0 0 1 1.312 1.312l-.028 9.647c0 2.638-2.15 4.774-4.788 4.774z"
          fill="#EDB49B"/>
    <path d="M340.799 70.213c.601-.056 1.299.181 1.969.572.907-4.076 3.057-8.432 5.723-11.405 1.117-1.48 2.401-2.443 3.783-3.03.754-.363 1.522-.614 2.276-.67.53-.041 1.047-.056 1.549-.056.517 0 1.033.014 1.55.056.768.07 1.522.321 2.275.684 1.396.587 2.667 1.55 3.77 3.044 2.638 3.001 4.788 7.343 5.667 11.433.684-.405 1.368-.628 1.983-.572 2.038.181 2.694 3.406 2.122 5.849-.712 3.099-3.058 4.062-5.235 4.676-.991 2.053-2.415 4.049-4.035 5.724-1.703 1.996-3.895 3.476-6.393 4.076-.07.014-.154.042-.224.056-.139.028-.293.07-.433.098-.097.014-.195.014-.293.028-.083.014-.167.014-.251.028a8.207 8.207 0 0 1-.586.028c-.196 0-.391-.014-.587-.028-.083-.014-.167-.014-.251-.028-.098-.014-.195-.014-.293-.028-.154-.028-.293-.07-.433-.098-.07-.014-.153-.028-.223-.056-2.499-.614-4.691-2.108-6.38-4.104a22.971 22.971 0 0 1-4.006-5.737c-2.164-.629-4.51-1.606-5.208-4.705-.544-2.443.126-5.668 2.164-5.835z"
          fill="#F2C9B7"/>
    <path d="M348.477 72.46a.408.408 0 0 0 .391-.223c1.228-2.331 3.392-1.368 3.476-1.326.209.098.447 0 .558-.196.098-.209 0-.46-.209-.558-1.019-.475-3.281-.726-4.565 1.69a.408.408 0 0 0 .168.558c.069.028.125.041.181.055zM360.623 71.427a.338.338 0 0 0 .377.07c2.066-.81 2.903.991 2.945 1.061.084.182.279.251.461.182a.34.34 0 0 0 .167-.461c-.391-.852-1.689-2.261-3.825-1.424a.345.345 0 0 0-.195.447c0 .056.028.097.07.125zM355.57 83.754a.425.425 0 0 0-.349-.293c-2.611-.335-2.457-2.68-2.457-2.778a.428.428 0 0 0-.377-.447c-.224-.014-.433.154-.447.377-.084 1.117.475 3.323 3.183 3.671a.41.41 0 0 0 .461-.362.369.369 0 0 0-.014-.168zM357.649 81.716c.279 0 .559-.07.796-.223.754-.49.949-1.62.516-3.016l-.977-4.649a.323.323 0 0 0-.391-.25.323.323 0 0 0-.251.39l.977 4.677c.405 1.326.14 2.038-.237 2.29-.391.25-.977.11-1.522-.364-.139-.126-.363-.126-.488.014-.126.14-.126.321 0 .447.53.447 1.075.684 1.577.684zM360.511 75.085c0 .698.559 1.27 1.271 1.27.698 0 1.27-.558 1.27-1.27 0-.698-.559-1.27-1.27-1.27-.698 0-1.271.572-1.271 1.27zM350.278 75.057c0 .698.559 1.27 1.271 1.27.712 0 1.27-.558 1.27-1.27 0-.698-.558-1.27-1.27-1.27s-1.271.572-1.271 1.27z"
          fill="#542B2B"/>
    <path d="M370.478 60.636c-3.224-11.628-21.721-15.09-28.701-1.619-4.956 9.563 2.191 21.498 3.629 21.68.922-3.63 1.145-7.525 1.298-11.336 1.941-.502 3.826-1.172 5.724-1.814 1.41-.475 2.806-.936 4.216-1.396a4.316 4.316 0 0 0 1.661-.545l.503-.167c-.293.404-.6.935-.908 1.368-.502.726-1.34 1.326-1.759 2.094.531-.363 1.285-.559 1.885-.824 1.201-.53 2.303-1.242 3.504-1.773.321-.14.656-.28.991-.419.503.573.949 1.075 1.215 1.34 1.815 1.718 3.085 1.69 3.197 4.398.139 3.406 1.033 6.756.837 10.107 1.243-2.401 2.848-9.688 3.099-11.852.238-2.038.168-7.231-.391-9.242z"
          fill="#542B2B"/>
    <path d="m391.545 128.384.725.517-1.912 2.192c3.993-4.537 12.396-1.159 16.501-2.611-.601-.935-30.768-30.405-30.768-30.405a7.39 7.39 0 0 0-10.205.88 7.412 7.412 0 0 0 1.089 10.777l24.57 18.65zM326.868 131.818l-.545.698 2.457 1.55c-5.123-3.225-12.396-4.146-16.752-4.384.321-1.075.81-2.136 1.508-3.113l19.558-28.227a7.392 7.392 0 0 1 4.579-3.043 7.45 7.45 0 0 1 5.472.991 7.4 7.4 0 0 1 2.01 10.638l-18.287 24.89z"
          fill="#FE6120"/>
    <path d="M400.633 103.466h-92.751v102.913h92.751V103.466z" fill="#009779"/>
    <path d="M400.633 103.466h-92.751v96.798h92.751v-96.798z" fill="#42B7A1"/>
    <path d="M393.593 114.144h.984v-6.239h-1.78v.89h.796v5.349zM354.271 187.351c-19.655 0-35.598-14.741-35.598-35.695 0-20.857 15.943-35.598 35.598-35.598 19.851 0 35.598 14.741 35.598 35.598 0 20.954-15.747 35.695-35.598 35.695zm0-9.925c13.835 0 23.872-10.024 23.872-25.77 0-15.747-10.023-25.575-23.872-25.575-13.834 0-23.871 9.828-23.871 25.575 0 15.746 10.023 25.77 23.871 25.77z"
          fill="#fff"/>
    <path d="M400.688 123.373c-.014 0-.028.014-.028.027l-.069 3.253-1.369-.125s-6.84-1.355-10.4 3.462c0 0 .014.014 0 .041-.042.224-.139 1.494 1.047.852a.547.547 0 0 0 .266-.14s.013 0 .069-.027c.321-.21.684-.363 1.103-.489.084-.028.154-.056.224-.084 1.633-.642 4.425-1.466 7.077-1.117-.237.028-1.41.182-2.89.517-.111.028-.237.056-.362.084-2.416.586-5.445 1.703-6.506 3.699 0 0-.014.028-.014.07 0 .084-.028.237 0 .405.014.069.028.139.07.223.098.223.307.377.824.209 0 0 .935-1.033 8.794-3.057-1.535.517-8.878 3.03-8.655 4.188 0 0-.028.265.028.545.07.293.238.628.754.628.154 0 .293-.028.489-.07 0 0 3.266-1.801 7.147-3.169-1.871.712-5.863 2.443-5.64 3.853 0 0 .014 1.34 4.565-.949.112-.056.224-.126.335-.182.754-.377 1.578-.558 2.415-.474.056-.028.098-.014.14-.014a5.14 5.14 0 0 1 1.047.209c.028.014.07.014.14.028 3.001.419 5.639-2.066 5.597-5.095-.013-.922-.014-1.717-.027-2.192a2.853 2.853 0 0 0-.671-1.815c-1.158-1.368-3.364-2.973-5.5-3.294zM307.854 123.373c.014 0 .028.014.028.027l.07 3.253 1.368-.125s6.84-1.355 10.4 3.462c0 0-.014.014 0 .041.042.224.14 1.494-1.047.852a.544.544 0 0 1-.265-.14s-.014 0-.07-.027a4.182 4.182 0 0 0-1.103-.489c-.084-.028-.153-.056-.223-.084-1.634-.642-4.426-1.466-7.078-1.117.237.028 1.41.182 2.89.517.111.028.237.056.363.084 2.415.586 5.444 1.703 6.505 3.699 0 0 .014.028.014.07 0 .084.028.237 0 .405-.014.069-.028.139-.07.223-.097.223-.307.377-.823.209 0 0-.936-1.033-8.795-3.057 1.535.517 8.878 3.03 8.655 4.188 0 0 .028.265-.028.545-.07.293-.237.628-.754.628a2.27 2.27 0 0 1-.488-.07s-3.267-1.801-7.148-3.169c1.871.712 5.863 2.443 5.64 3.853 0 0-.014 1.34-4.565-.949-.112-.056-.223-.126-.335-.182-.754-.377-1.577-.558-2.415-.474-.056-.028-.098-.014-.14-.014a5.14 5.14 0 0 0-1.047.209c-.028.014-.069.014-.139.028-3.002.419-5.64-2.066-5.598-5.095.014-.922.014-1.717.028-2.192.014-.67.237-1.312.67-1.815 1.158-1.368 3.364-2.973 5.5-3.294z"
          fill="#F2C9B7"/>
    <path d="M460.576 161.804c.963 11.587 6.171 21.038 12.062 28.507 4.802 6.086 9.032 11.154 12.075 19.655 2.722 7.609 1.382 15.468.67 23.425-.837-5.64-4.355-12.187-7.692-15.035-1.535 4.872-1.633 10.331-3.825 15.119-3.057 6.659-7.357 11.908-11.768 16.403-4.216 4.286-8.669 7.999-12.829 12.466-1.801 1.941-3.476 3.644-5.57 4.83-2.653 1.522-3.546.07-5.85-2.289-1.842-1.899-3.825-3.685-5.793-5.403-4.663-4.076-9.367-6.491-12.424-13.708-2.457-5.78-3.839-12.829-4.063-19.488-4.648 2.778-6.91 10.665-9.772 16.221-.321-8.418.824-17.352 2.513-25.337 1.103-5.221 2.638-11.057 4.984-15.314 2.345-4.258 5.849-6.687 8.85-9.772 6.869-7.05 11.224-20.159 13.555-32.108"
          fill="#542B2B"/>
    <path d="m475.974 236.91.544.698-2.457 1.549c5.124-3.225 12.397-4.146 16.752-4.383a10.506 10.506 0 0 0-1.507-3.113l-19.558-28.228a7.394 7.394 0 0 0-4.579-3.043 7.454 7.454 0 0 0-5.473.991c-3.629 2.304-4.551 7.176-2.01 10.638l18.288 24.891zM420.832 234.592l-.545.698 2.457 1.55c-5.123-3.225-12.396-4.146-16.752-4.384.321-1.075.81-2.136 1.508-3.113l19.558-28.227a7.394 7.394 0 0 1 4.579-3.043 7.45 7.45 0 0 1 5.472.991 7.398 7.398 0 0 1 2.01 10.637l-18.287 24.891z"
          fill="#F15A24"/>
    <path d="M459.194 199.65c-.894 6.547-5.612 11.531-11.308 11.531-6.184 0-11.196-5.891-11.433-13.248 1.326 0 2.861-.014 4.202-.028.167 0 .349-.014.502-.084a2.466 2.466 0 0 0 1.899-1.828l.181-.726 9.242.349-.168 1.759c-.07.684.419 1.298 1.103 1.41l4.118.628c.489.056 1.061.153 1.662.237z"
          fill="#F2C9B7"/>
    <path d="M465.337 428.301h.432a4.428 4.428 0 0 1 3.323 1.535c1.912 2.192 6.966 2.178 9.758 1.55.153-.028.293-.07.447-.112 1.186-.335 1.479-1.898.488-2.652l-9.869-7.971c-.014-.042.013-.224.055-.489l-5.779.126c-.196.67-.335 1.13-.335 1.13-.74 3.197-1.787 6.869 1.48 6.883zM432.629 428.301h-.433a4.428 4.428 0 0 0-3.323 1.535c-1.912 2.192-6.966 2.178-9.758 1.55-.153-.028-.293-.07-.446-.112-1.187-.335-1.48-1.898-.489-2.652l9.87-7.971c.014-.042-.014-.224-.056-.489l5.779.126c.196.67.335 1.13.335 1.13.74 3.197 1.801 6.869-1.479 6.883z"
          fill="#F15A24"/>
    <path d="m424.894 344.722-.67 4.523a137.946 137.946 0 0 0-.502 37.148c1.508 12.424 3.406 27.627 4.341 34.258l5.892.237 10.246-116.454 20.019 116.287 6.03.502c.28-5.263 1.006-15.817 1.704-25.826a156.433 156.433 0 0 0-3.839-47.115l3.001-38.711c3.169-12.48.935-24.919-2.22-34.383h-46.012c-2.568 7.482-4.411 17.073-3.713 28.618l5.723 40.916z"
          fill="#009779"/>
    <path d="M452.48 195.588s-.14 1.34-.14 1.354l-9.465-.489c.014-.405.405-2.01.447-2.401.056-.698.153-1.41.237-2.094l.503-3.769 9.171 2.624-.753 4.775z"
          fill="#EDB49B"/>
    <path d="M471.088 283.201c-12.494 4.23-26.356 6.938-38.111 4.132-4.341-1.019-8.404-2.792-12.005-5.542 0 0 4.718-16.948 9.604-29.707.796-2.066 1.382-5.542 1.284-7.748-.376-7.147-3.573-12.396-4.481-19.293-.795-5.905 4.691-23.131 5.794-26.51.139-.391.195-.586.195-.586h.056c.279 0 1.508 0 3.015-.014.238 7.357 5.263 13.248 11.434 13.248 5.695 0 10.414-4.984 11.307-11.531 2.681.377 6.003.81 6.003.81-.419 4.188-1.438 8.697-.838 12.899.363 2.513 1.006 4.984 1.285 7.496.377 3.393-.252 6.562-1.675 9.619-1.745 3.797-3.295 8.111-3.7 12.34-.893 9.033 3.043 17.115 6.24 25.338 2.848 7.203 4.593 15.049 4.593 15.049z"
          fill="#F15A24"/>
    <path d="M432.74 170.599c.628-.028 1.326.238 2.01.684 1.103-4.174 3.504-8.557 6.38-11.517 1.214-1.479 2.569-2.415 4.034-2.959.796-.349 1.592-.572 2.374-.6a15.314 15.314 0 0 1 1.605.014c.53.014 1.061.055 1.591.125.782.098 1.564.391 2.318.796 1.41.656 2.68 1.717 3.769 3.295 2.597 3.196 4.621 7.775 5.361 12.019.712-.377 1.437-.586 2.066-.502 2.094.265 2.624 3.629 1.94 6.114-.865 3.155-3.322 4.062-5.584 4.593a23.521 23.521 0 0 1-4.397 5.737c-1.843 1.983-4.16 3.421-6.771 3.937l-.223.042c-.154.028-.293.07-.447.084-.098.014-.209.014-.307.014-.084 0-.168.014-.265.014a4.305 4.305 0 0 1-.601 0c-.195-.014-.404-.028-.6-.056-.084-.014-.167-.028-.265-.042l-.307-.042c-.154-.028-.293-.084-.447-.126a1.36 1.36 0 0 1-.223-.069c-2.555-.74-4.747-2.36-6.408-4.495a23.667 23.667 0 0 1-3.895-6.087c-2.205-.726-4.579-1.843-5.165-5.054-.475-2.54.349-5.821 2.457-5.919z"
          fill="#F2C9B7"/>
    <path d="M449.158 185.579c1.493-.391 3.141-1.41 3.922-3.812a.374.374 0 1 0-.712-.237c-1.396 4.314-5.863 3.504-6.058 3.462a.382.382 0 0 0-.447.293.382.382 0 0 0 .293.447c.042.014 1.438.265 3.002-.153zM454.434 176.7a1.293 1.293 0 0 1-1.41 1.145 1.287 1.287 0 0 1-1.131-1.424 1.293 1.293 0 0 1 1.41-1.145 1.297 1.297 0 0 1 1.131 1.424zM444.048 176.253a1.293 1.293 0 0 1-1.41 1.145 1.287 1.287 0 0 1-1.131-1.424 1.293 1.293 0 0 1 1.41-1.145 1.288 1.288 0 0 1 1.131 1.424zM456.138 173.545c.014 0 .028-.014.042-.014a.383.383 0 0 0 .223-.489c-.894-2.331-2.96-2.331-3.937-2.024a.375.375 0 0 0-.237.475c.07.195.251.307.475.251.069-.028 2.135-.656 3.001 1.578.042.167.237.265.433.223zM444.802 171.591c.014-.014.014-.028.027-.042.098-.182.042-.419-.139-.517-2.164-1.228-3.769.084-4.328.936a.377.377 0 0 0 .112.516c.181.112.391.084.517-.112.041-.055 1.242-1.87 3.322-.684a.373.373 0 0 0 .489-.097zM446.673 181.656a.353.353 0 0 0 .377-.349.373.373 0 0 0-.349-.391c-.014 0-.712-.042-.866-.433-.07-.181-.14-.726.935-1.94.14-.154.112-.377-.042-.517-.153-.139-.376-.111-.516.028-1.005 1.145-1.354 2.038-1.061 2.722.363.824 1.48.88 1.522.88z"
          fill="#542B2B"/>
    <path d="M458.789 153.973a13.742 13.742 0 0 0-3.169-2.066c-2.834-1.34-6.058-1.773-9.186-1.494-6.77.587-12.145 4.677-14.029 11.252-2.136 7.441-1.452 17.115 4.969 22.28.503.405 1.006.838 1.508 1.243.196-.503-.237-.95-.405-1.396-.265-.671-.405-1.382-.572-2.08-.433-1.732-.503-3.532-.293-5.291.251-2.08.977-4.314 1.34-6.506 1.591-.363 3.113-1.047 4.286-2.038 1.2-1.005 2.261-2.275 3.21-3.518.671-.865 1.229-1.926 1.983-2.778.056.977.195 1.941.251 2.904.084 1.228-.293 2.68-.167 3.839.055.447-.224.335.293.461.265.055 1.019-.349 1.228-.475.573-.349.991-.894 1.494-1.34.907-.81 1.843-1.913 2.247-3.071-.013 1.242.992 2.457 1.69 3.406.684.935 1.27 1.898 1.912 2.876 1.48 2.219 1.996 4.886 1.689 7.552-.139 1.284-.656 2.527-.823 3.783.028-.237.977-.893 1.172-1.103.433-.46.824-.949 1.187-1.452a15.85 15.85 0 0 0 1.731-3.169c.935-2.247 1.438-4.676 1.661-7.105.489-5.486-1.131-11.168-5.207-14.714z"
          fill="#542B2B"/>
    <path d="M495.951 227.026h-92.75v102.913h92.75V227.026z" fill="#FFB400"/>
    <path d="M495.951 222.614h-92.75v102.913h92.75V222.614z" fill="#FFB400"/>
    <path d="M454.141 278.468h-12.634v28.283h-11.433v-69.688h24.067c16.543 0 24.668 9.423 24.668 20.759 0 9.911-6.52 20.646-24.668 20.646zm0-9.325c8.921 0 12.941-4.314 12.941-11.335 0-7.218-4.006-11.434-12.941-11.434h-12.634v22.769h12.634zM485.427 233.219h4.159v-.813h-2.713c1.001-.916 2.542-2.072 2.542-3.587 0-1.121-.719-1.882-1.986-1.882-1.104 0-1.977.659-2.011 2.011h.942c.025-.702.393-1.181 1.078-1.181.727 0 1.01.445 1.01 1.095 0 1.224-1.549 2.354-3.021 3.646v.711z"
          fill="#fff"/>
    <path d="M495.979 259.134a.03.03 0 0 0-.028.028l-.069 3.252-1.369-.125s-6.84-1.354-10.4 3.462c0 0 .014.014 0 .042-.042.223-.139 1.493 1.047.851a.553.553 0 0 0 .266-.139s.014 0 .069-.028c.321-.21.684-.363 1.103-.489.084-.028.154-.056.224-.084 1.633-.642 4.425-1.465 7.077-1.116a30.26 30.26 0 0 0-2.889.516c-.112.028-.238.056-.363.084-2.415.586-5.445 1.703-6.506 3.699 0 0-.014.028-.014.07 0 .084-.028.237 0 .405.014.07.028.139.07.223.098.224.307.377.824.21 0 0 .935-1.033 8.794-3.058-1.535.517-8.878 3.03-8.655 4.188 0 0-.028.266.028.545.07.293.238.628.754.628.154 0 .293-.028.489-.07 0 0 3.266-1.801 7.147-3.169-1.87.712-5.863 2.443-5.64 3.853 0 0 .014 1.34 4.565-.949.112-.056.224-.126.335-.182.754-.376 1.578-.558 2.415-.474.056-.028.098-.014.14-.014.363.042.712.098 1.047.209.028.014.07.014.14.028 3.001.419 5.639-2.066 5.597-5.095-.013-.922-.013-1.717-.027-2.192a2.853 2.853 0 0 0-.671-1.815c-1.158-1.354-3.364-2.959-5.5-3.294zM403.145 259.134a.03.03 0 0 1 .028.028l.07 3.252 1.368-.125s6.84-1.354 10.4 3.462c0 0-.014.014 0 .042.042.223.14 1.493-1.047.851a.546.546 0 0 1-.265-.139s-.014 0-.07-.028a4.182 4.182 0 0 0-1.103-.489c-.084-.028-.153-.056-.223-.084-1.634-.642-4.426-1.465-7.078-1.116a30.313 30.313 0 0 1 3.253.6c2.415.586 5.444 1.703 6.505 3.699 0 0 .014.028.014.07 0 .084.028.237 0 .405a.809.809 0 0 1-.07.223c-.098.224-.307.377-.823.21 0 0-.936-1.033-8.795-3.058 1.535.517 8.878 3.03 8.655 4.188 0 0 .028.266-.028.545-.07.293-.237.628-.754.628a2.27 2.27 0 0 1-.488-.07s-3.267-1.801-7.148-3.169c1.871.712 5.863 2.443 5.64 3.853 0 0-.014 1.34-4.565-.949-.112-.056-.209-.126-.335-.182-.754-.376-1.577-.558-2.415-.474-.056-.028-.098-.014-.14-.014a5.208 5.208 0 0 0-1.047.209c-.028.014-.07.014-.139.028-3.002.419-5.64-2.066-5.598-5.095.014-.922.014-1.717.028-2.192.014-.67.237-1.312.67-1.815 1.158-1.354 3.364-2.959 5.5-3.294z"
          fill="#F2C9B7"/>
</svg>