<?xml version="1.0" standalone="no"?>
<!DOCTYPE svg PUBLIC "-//W3C//DTD SVG 20010904//EN"
 "http://www.w3.org/TR/2001/REC-SVG-20010904/DTD/svg10.dtd">
<svg version="1.0" xmlns="http://www.w3.org/2000/svg"
 width="512.000000pt" height="512.000000pt" viewBox="0 0 512.000000 512.000000"
 preserveAspectRatio="xMidYMid meet">
<metadata>
Created by potrace 1.14, written by Peter Selinger 2001-2017
</metadata>
<g transform="translate(0.000000,512.000000) scale(0.100000,-0.100000)"
fill="#000000" stroke="none">
<path d="M2075 4796 c-109 -34 -187 -102 -237 -204 l-33 -67 -3 -230 c-2 -126
-5 -231 -6 -232 -1 -1 -342 -4 -756 -5 l-755 -3 -65 -31 c-82 -39 -144 -101
-184 -184 l-31 -65 -3 -207 -4 -208 60 -63 61 -62 -60 -62 -59 -61 0 -252 0
-252 59 -62 60 -61 -60 -62 -59 -61 0 -401 0 -402 25 -24 c13 -14 30 -25 37
-25 10 0 14 -18 13 -70 0 -68 -1 -71 -32 -90 -18 -11 -35 -30 -38 -43 -4 -13
-5 -178 -3 -368 l3 -344 31 -65 c40 -83 102 -145 184 -184 l65 -31 2275 0
2275 0 65 31 c82 39 144 101 184 184 l31 65 3 344 c2 190 1 354 -2 365 -3 12
-30 46 -60 76 l-55 55 60 62 59 62 -2 1108 -3 1108 -31 65 c-31 64 -100 145
-146 168 -21 11 -60 27 -98 41 -8 2 -352 6 -764 8 -413 2 -751 5 -752 6 -1 1
-4 106 -6 232 l-3 230 -31 65 c-42 85 -96 140 -180 181 l-69 34 -460 2 c-348
1 -470 -1 -500 -11z m795 -586 l0 -150 -310 0 -310 0 0 150 0 150 310 0 310 0
0 -150z"/>
</g>
</svg>
